<svg width="26" height="26" viewBox="0 0 26 26" fill="none" xmlns="http://www.w3.org/2000/svg">
<path d="M23.6667 7.70837V18.5417C23.6667 19.26 23.3813 19.9489 22.8734 20.4568C22.3655 20.9647 21.6766 21.25 20.9583 21.25H4.70833C3.99004 21.25 3.30116 20.9647 2.79325 20.4568C2.28534 19.9489 2 19.26 2 18.5417V7.70837" stroke="white" stroke-linecap="round" stroke-linejoin="round"/>
<path d="M23.6667 7.70833C23.6667 6.99004 23.3813 6.30116 22.8734 5.79325C22.3655 5.28534 21.6766 5 20.9583 5H4.70833C3.99004 5 3.30116 5.28534 2.79325 5.79325C2.28534 6.30116 2 6.99004 2 7.70833L11.3979 13.5764C11.8284 13.8454 12.3257 13.9881 12.8333 13.9881C13.3409 13.9881 13.8383 13.8454 14.2687 13.5764L23.6667 7.70833Z" stroke="white" stroke-linecap="round" stroke-linejoin="round"/>
</svg>
