<svg width="23" height="23" viewBox="0 0 23 23" fill="none" xmlns="http://www.w3.org/2000/svg">
<path d="M20.604 16.2917L2.39567 16.2917" stroke="white" stroke-linecap="round"/>
<path d="M20.604 6.70834L2.39567 6.70834" stroke="white" stroke-linecap="round"/>
<path d="M11.5 1.91666L11.5 6.70832M11.5 21.0833L11.5 16.2917" stroke="white" stroke-linecap="round"/>
<path d="M16.2915 2.39584L16.2915 6.70834M16.2915 20.6042L16.2915 16.2917" stroke="white" stroke-linecap="round"/>
<path d="M6.7085 2.39584L6.7085 6.70834M6.7085 20.6042L6.7085 16.2917" stroke="white" stroke-linecap="round"/>
<path d="M13.4168 11.5C13.4168 10.9942 12.9093 10.6531 11.8942 9.97082C10.8653 9.27926 10.3508 8.93348 9.96714 9.18736C9.5835 9.44125 9.5835 10.1275 9.5835 11.5C9.5835 12.8725 9.5835 13.5587 9.96714 13.8126C10.3508 14.0665 10.8653 13.7207 11.8942 13.0292C12.9093 12.3469 13.4168 12.0058 13.4168 11.5Z" stroke="#C684D8" stroke-linecap="round"/>
<path d="M1.9165 11.5C1.9165 6.98236 1.9165 4.72355 3.31995 3.3201C4.7234 1.91666 6.98221 1.91666 11.4998 1.91666C16.0175 1.91666 18.2763 1.91666 19.6797 3.3201C20.4622 4.10256 20.8084 5.1509 20.9616 6.70832M21.0832 11.5C21.0832 16.0176 21.0832 18.2764 19.6797 19.6799C18.2763 21.0833 16.0175 21.0833 11.4998 21.0833C6.98221 21.0833 4.7234 21.0833 3.31995 19.6799C2.53749 18.8974 2.19128 17.8491 2.03808 16.2917" stroke="white" stroke-linecap="round"/>
</svg>
