<svg width="31" height="31" viewBox="0 0 31 31" fill="none" xmlns="http://www.w3.org/2000/svg">
<path d="M10.6667 12.2778C10.6667 11.3218 10.9501 10.3874 11.4812 9.59252C12.0123 8.79768 12.7672 8.17819 13.6504 7.81236C14.5335 7.44654 15.5053 7.35082 16.443 7.53733C17.3805 7.72381 18.2418 8.18414 18.9177 8.8601C19.5937 9.53605 20.054 10.3973 20.2405 11.3348C20.4269 12.2724 20.3312 13.2443 19.9654 14.1275C19.5996 15.0105 18.9802 15.7655 18.1852 16.2965C17.3905 16.8277 16.4559 17.1111 15.5 17.1111V18.7222M4.22222 30H26.7778C28.5574 30 30 28.5574 30 26.7778V4.22222C30 2.44264 28.5574 1 26.7778 1H4.22222C2.44264 1 1 2.44264 1 4.22222V26.7778C1 28.5574 2.44264 30 4.22222 30Z" stroke="white" stroke-width="2" stroke-linecap="round" stroke-linejoin="round"/>
<path d="M15.5 25.1666C16.3898 25.1666 17.1111 24.4453 17.1111 23.5555C17.1111 22.6657 16.3898 21.9444 15.5 21.9444C14.6102 21.9444 13.8889 22.6657 13.8889 23.5555C13.8889 24.4453 14.6102 25.1666 15.5 25.1666Z" fill="#C684D8"/>
</svg>
