<svg width="30" height="30" viewBox="0 0 30 30" fill="none" xmlns="http://www.w3.org/2000/svg">
<path d="M5.94281 7.11157C8.34929 4.65106 11.0371 2.76586 12.8551 1.62411C14.1801 0.791963 15.8198 0.791963 17.1448 1.62411C18.9628 2.76586 21.6506 4.65106 24.0572 7.11157C29.2746 12.4463 28.9974 15.5302 28.9974 20.5814C28.9974 22.9551 28.8155 24.957 28.6228 26.4124C28.4199 27.9436 27.1137 29 25.6025 29H23.2338C21.4148 29 19.9403 27.4924 19.9403 25.6325V22.2651C19.9403 20.9254 19.4198 19.6407 18.4933 18.6934C17.5668 17.7461 16.3102 17.2139 15 17.2139C13.6897 17.2139 12.4332 17.7461 11.5067 18.6934C10.5802 19.6407 10.0597 20.9254 10.0597 22.2651V25.6325C10.0597 27.4924 8.58514 29 6.76619 29H4.39743C2.88614 29 1.57998 27.9436 1.37716 26.4123C1.18439 24.957 1.00256 22.9551 1.00256 20.5814C1.00256 15.5302 0.725246 12.4463 5.94281 7.11157Z" stroke="white" stroke-width="2" stroke-linecap="round" stroke-linejoin="round"/>
</svg>
