<svg width="27" height="20" viewBox="0 0 27 20" fill="none" xmlns="http://www.w3.org/2000/svg">
<path d="M25.3333 19.3334H9.33333C8.97971 19.3334 8.64057 19.1929 8.39052 18.9428C8.14048 18.6928 8 18.3536 8 18C8 17.6464 8.14048 17.3073 8.39052 17.0572C8.64057 16.8072 8.97971 16.6667 9.33333 16.6667H25.3333C25.687 16.6667 26.0261 16.8072 26.2761 17.0572C26.5262 17.3073 26.6667 17.6464 26.6667 18C26.6667 18.3536 26.5262 18.6928 26.2761 18.9428C26.0261 19.1929 25.687 19.3334 25.3333 19.3334ZM25.3333 11.3334H9.33333C8.97971 11.3334 8.64057 11.1929 8.39052 10.9428C8.14048 10.6928 8 10.3536 8 10C8 9.6464 8.14048 9.30726 8.39052 9.05721C8.64057 8.80716 8.97971 8.66669 9.33333 8.66669H25.3333C25.687 8.66669 26.0261 8.80716 26.2761 9.05721C26.5262 9.30726 26.6667 9.6464 26.6667 10C26.6667 10.3536 26.5262 10.6928 26.2761 10.9428C26.0261 11.1929 25.687 11.3334 25.3333 11.3334ZM25.3333 3.33335H9.33333C8.97971 3.33335 8.64057 3.19288 8.39052 2.94283C8.14048 2.69278 8 2.35364 8 2.00002C8 1.6464 8.14048 1.30726 8.39052 1.05721C8.64057 0.807163 8.97971 0.666687 9.33333 0.666687H25.3333C25.687 0.666687 26.0261 0.807163 26.2761 1.05721C26.5262 1.30726 26.6667 1.6464 26.6667 2.00002C26.6667 2.35364 26.5262 2.69278 26.2761 2.94283C26.0261 3.19288 25.687 3.33335 25.3333 3.33335Z" fill="white"/>
<path d="M4 2C4 2.39556 3.8827 2.78224 3.66294 3.11114C3.44318 3.44004 3.13082 3.69638 2.76537 3.84776C2.39992 3.99913 1.99778 4.03874 1.60982 3.96157C1.22186 3.8844 0.865492 3.69392 0.585787 3.41421C0.306082 3.13451 0.115601 2.77814 0.0384303 2.39018C-0.0387401 2.00222 0.000866572 1.60009 0.152242 1.23463C0.303617 0.869181 0.559962 0.556824 0.88886 0.337061C1.21776 0.117298 1.60444 0 2 0C2.53043 0 3.03914 0.210713 3.41421 0.585786C3.78929 0.960859 4 1.46957 4 2ZM2 8C1.60444 8 1.21776 8.1173 0.88886 8.33706C0.559962 8.55682 0.303617 8.86918 0.152242 9.23463C0.000866572 9.60009 -0.0387401 10.0022 0.0384303 10.3902C0.115601 10.7781 0.306082 11.1345 0.585787 11.4142C0.865492 11.6939 1.22186 11.8844 1.60982 11.9616C1.99778 12.0387 2.39992 11.9991 2.76537 11.8478C3.13082 11.6964 3.44318 11.44 3.66294 11.1111C3.8827 10.7822 4 10.3956 4 10C4 9.46957 3.78929 8.96086 3.41421 8.58579C3.03914 8.21071 2.53043 8 2 8ZM2 16C1.60444 16 1.21776 16.1173 0.88886 16.3371C0.559962 16.5568 0.303617 16.8692 0.152242 17.2346C0.000866572 17.6001 -0.0387401 18.0022 0.0384303 18.3902C0.115601 18.7781 0.306082 19.1345 0.585787 19.4142C0.865492 19.6939 1.22186 19.8844 1.60982 19.9616C1.99778 20.0387 2.39992 19.9991 2.76537 19.8478C3.13082 19.6964 3.44318 19.44 3.66294 19.1111C3.8827 18.7822 4 18.3956 4 18C4 17.4696 3.78929 16.9609 3.41421 16.5858C3.03914 16.2107 2.53043 16 2 16Z" fill="#C684D8"/>
</svg>
