<svg width="13" height="13" viewBox="0 0 13 13" fill="none" xmlns="http://www.w3.org/2000/svg">
<path d="M7.04167 4.83289L4.29123 2.08245C3.68129 1.47252 2.69239 1.47252 2.08245 2.08245C1.47252 2.69239 1.47252 3.68129 2.08245 4.29123L8.70877 10.9175C9.31871 11.5275 10.3076 11.5275 10.9175 10.9175C11.5275 10.3076 11.5275 9.31871 10.9175 8.70877L9.25044 7.04167" stroke="white" stroke-linecap="round"/>
<path d="M3.25 5.41666L5.41667 3.24999" stroke="white" stroke-linecap="round"/>
<path d="M8.72102 1.24974C8.80819 1.02788 9.12102 1.02788 9.2082 1.24974L9.44132 1.84302C9.46794 1.91075 9.52136 1.96437 9.58884 1.99108L10.1799 2.22507C10.401 2.31257 10.401 2.62655 10.1799 2.71405L9.58884 2.94804C9.52136 2.97475 9.46794 3.02837 9.44132 3.09611L9.2082 3.68939C9.12102 3.91124 8.80819 3.91124 8.72102 3.68939L8.48789 3.09611C8.46128 3.02837 8.40786 2.97475 8.34037 2.94804L7.74928 2.71405C7.52824 2.62655 7.52824 2.31257 7.74928 2.22507L8.34037 1.99108C8.40786 1.96437 8.46128 1.91075 8.48789 1.84302L8.72102 1.24974Z" stroke="white"/>
<path d="M10.8155 4.94511C10.9027 4.72325 11.2155 4.72325 11.3027 4.94511L11.3877 5.16142C11.4143 5.22916 11.4677 5.28278 11.5352 5.30949L11.7507 5.3948C11.9717 5.4823 11.9717 5.79629 11.7507 5.88379L11.5352 5.9691C11.4677 5.99581 11.4143 6.04943 11.3877 6.11717L11.3027 6.33348C11.2155 6.55534 10.9027 6.55534 10.8155 6.33348L10.7305 6.11717C10.7039 6.04943 10.6504 5.99581 10.583 5.9691L10.3674 5.88379C10.1464 5.79629 10.1464 5.4823 10.3674 5.3948L10.583 5.30949C10.6504 5.28278 10.7039 5.22916 10.7305 5.16142L10.8155 4.94511Z" stroke="white"/>
<path d="M2.78032 8.29139C2.8675 8.06954 3.18032 8.06954 3.2675 8.29139L3.3525 8.50771C3.37912 8.57544 3.43254 8.62906 3.50002 8.65577L3.71554 8.74109C3.93658 8.82859 3.93658 9.14257 3.71554 9.23007L3.50002 9.31538C3.43254 9.3421 3.37912 9.39571 3.3525 9.46345L3.2675 9.67976C3.18032 9.90162 2.8675 9.90162 2.78032 9.67976L2.69532 9.46345C2.66871 9.39571 2.61529 9.3421 2.5478 9.31538L2.33228 9.23007C2.11124 9.14257 2.11124 8.82859 2.33228 8.74109L2.5478 8.65577C2.61529 8.62906 2.66871 8.57544 2.69532 8.50771L2.78032 8.29139Z" stroke="white"/>
</svg>
