<svg width="26" height="26" viewBox="0 0 26 26" fill="none" xmlns="http://www.w3.org/2000/svg">
<path d="M18.4167 9.90112H7.58333C6.08756 9.90112 4.875 11.1137 4.875 12.6095V20.7345C4.875 22.2302 6.08756 23.4428 7.58333 23.4428H18.4167C19.9124 23.4428 21.125 22.2302 21.125 20.7345V12.6095C21.125 11.1137 19.9124 9.90112 18.4167 9.90112Z" stroke="white" stroke-linecap="round" stroke-linejoin="round"/>
<path d="M13.0002 1.77612C11.5636 1.77612 10.1858 2.34681 9.17 3.36263C8.15418 4.37845 7.5835 5.7562 7.5835 7.19279V9.90112H18.4168V7.19279C18.4168 5.7562 17.8461 4.37845 16.8303 3.36263C15.8145 2.34681 14.4368 1.77612 13.0002 1.77612V1.77612Z" stroke="white" stroke-linecap="round" stroke-linejoin="round"/>
</svg>
