<svg width="22" height="20" viewBox="0 0 22 20" fill="none" xmlns="http://www.w3.org/2000/svg">
<path d="M20.0572 1.69746C19.7544 1.42109 19.3949 1.20245 18.9994 1.05417C18.6039 0.905891 18.1803 0.830912 17.753 0.833564C17.3257 0.836216 16.9032 0.916445 16.51 1.06962C16.1167 1.22279 15.7605 1.44587 15.4618 1.72598L2.57329 13.5404L1 19.1666L7.13759 17.7236L20.0261 5.90911C20.3317 5.63545 20.5752 5.30896 20.7423 4.94853C20.9095 4.5881 20.997 4.20087 20.9999 3.80923C21.0028 3.41759 20.921 3.02931 20.7592 2.66684C20.5974 2.30436 20.3588 1.97489 20.0572 1.69746V1.69746Z" stroke="#C684D8" stroke-linecap="round" stroke-linejoin="round"/>
<path d="M15.0938 2.06409L19.6572 6.24722" stroke="#C684D8" stroke-linecap="round" stroke-linejoin="round"/>
<path d="M2.57422 13.5396L7.14208 17.7194" stroke="#C684D8" stroke-linecap="round" stroke-linejoin="round"/>
</svg>
