<svg width="34" height="34" viewBox="0 0 34 34" fill="none" xmlns="http://www.w3.org/2000/svg">
<path d="M28.05 19.2667C28.1209 18.7708 28.1917 18.275 28.1917 17.7083C28.1917 17.1417 28.1209 16.6458 28.05 16.15L31.2375 13.8833C31.5209 13.6708 31.6625 13.2458 31.45 12.8917L28.3334 7.65001C28.1209 7.29584 27.7667 7.15417 27.4125 7.36667L23.8709 8.99584C23.0209 8.35834 22.1709 7.86251 21.1792 7.43751L20.825 3.54167C20.7542 3.18751 20.4709 2.90417 20.1167 2.90417H14.025C13.6709 2.90417 13.3167 3.18751 13.3167 3.54167L12.9625 7.43751C11.9709 7.86251 11.05 8.35834 10.2709 8.99584L6.7292 7.36667C6.37504 7.22501 5.95004 7.36667 5.80837 7.65001L2.76254 12.8917C2.55004 13.2458 2.6917 13.6708 2.97504 13.8833L6.16254 16.15C6.0917 16.6458 6.02087 17.1417 6.02087 17.7083C6.02087 18.275 6.0917 18.7708 6.16254 19.2667L2.83337 21.5333C2.55004 21.7458 2.40837 22.1708 2.62087 22.525L5.6667 27.7667C5.8792 28.1208 6.23337 28.2625 6.58754 28.05L10.1292 26.4208C10.9792 27.0583 11.8292 27.5542 12.8209 27.9792L13.175 31.875C13.2459 32.2292 13.5292 32.5125 13.8834 32.5125H19.975C20.3292 32.5125 20.6834 32.2292 20.6834 31.875L21.0375 27.9792C22.0292 27.5542 22.95 27.0583 23.7292 26.4208L27.2709 28.05C27.625 28.1917 28.05 28.05 28.1917 27.7667L31.2375 22.525C31.45 22.1708 31.3084 21.7458 31.025 21.5333L28.05 19.2667ZM17 24.7917C13.1042 24.7917 9.9167 21.6042 9.9167 17.7083C9.9167 13.8125 13.1042 10.625 17 10.625C20.8959 10.625 24.0834 13.8125 24.0834 17.7083C24.0834 21.6042 20.8959 24.7917 17 24.7917Z" fill="white"/>
<path d="M17 9.20831C12.325 9.20831 8.5 13.0333 8.5 17.7083C8.5 22.3833 12.325 26.2083 17 26.2083C21.675 26.2083 25.5 22.3833 25.5 17.7083C25.5 13.0333 21.675 9.20831 17 9.20831ZM17 21.25C15.0167 21.25 13.4583 19.6916 13.4583 17.7083C13.4583 15.725 15.0167 14.1666 17 14.1666C18.9833 14.1666 20.5417 15.725 20.5417 17.7083C20.5417 19.6916 18.9833 21.25 17 21.25Z" fill="#C684D8"/>
</svg>
