<svg width="14" height="14" viewBox="0 0 14 14" fill="none" xmlns="http://www.w3.org/2000/svg">
<path d="M11.9582 3.5H2.0415" stroke="white" stroke-linecap="round"/>
<path d="M5.5415 6.41666L5.83317 9.33332" stroke="white" stroke-linecap="round"/>
<path d="M8.45817 6.41666L8.1665 9.33332" stroke="white" stroke-linecap="round"/>
<path d="M3.7915 3.5C3.8241 3.5 3.8404 3.5 3.85517 3.49963C4.33552 3.48745 4.75927 3.18203 4.92271 2.73019C4.92774 2.71629 4.9329 2.70083 4.9432 2.6699L4.99984 2.5C5.04818 2.35496 5.07236 2.28244 5.10442 2.22087C5.23234 1.97521 5.46902 1.80462 5.74253 1.76095C5.81108 1.75 5.88752 1.75 6.04041 1.75H7.95927C8.11215 1.75 8.18859 1.75 8.25715 1.76095C8.53065 1.80462 8.76733 1.97521 8.89525 2.22087C8.92732 2.28244 8.95149 2.35496 8.99984 2.5L9.05647 2.6699C9.06677 2.70078 9.07194 2.7163 9.07696 2.73019C9.24041 3.18203 9.66416 3.48745 10.1445 3.49963C10.1593 3.5 10.1756 3.5 10.2082 3.5" stroke="white"/>
<path d="M10.7181 8.98283C10.6148 10.5315 10.5632 11.3059 10.0586 11.7779C9.55404 12.25 8.77797 12.25 7.22584 12.25H6.77471C5.22257 12.25 4.44651 12.25 3.94192 11.7779C3.43733 11.3059 3.38571 10.5315 3.28246 8.98283L3.01416 4.95834M10.9864 4.95834L10.8697 6.70834" stroke="white" stroke-linecap="round"/>
</svg>
