<svg width="29" height="29" viewBox="0 0 29 29" fill="none" xmlns="http://www.w3.org/2000/svg">
<path d="M20.5415 3.02083L20.5415 25.9792" stroke="white" stroke-width="1.5" stroke-linecap="round"/>
<path d="M8.4585 3.02083L8.4585 25.9792" stroke="white" stroke-width="1.5" stroke-linecap="round"/>
<path d="M2.4165 14.5L8.45817 14.5M26.5832 14.5L20.5415 14.5" stroke="white" stroke-width="1.5" stroke-linecap="round"/>
<path d="M3.021 8.45833L8.4585 8.45833M25.9793 8.45833L20.5418 8.45833" stroke="white" stroke-width="1.5" stroke-linecap="round"/>
<path d="M25.979 21.2917C26.3932 21.2917 26.729 20.9559 26.729 20.5417C26.729 20.1275 26.3932 19.7917 25.979 19.7917V21.2917ZM20.5415 19.7917C20.1273 19.7917 19.7915 20.1275 19.7915 20.5417C19.7915 20.9559 20.1273 21.2917 20.5415 21.2917V19.7917ZM8.45817 21.2917C8.87238 21.2917 9.20817 20.9559 9.20817 20.5417C9.20817 20.1275 8.87238 19.7917 8.45817 19.7917L8.45817 21.2917ZM20.5415 21.2917L25.979 21.2917V19.7917L20.5415 19.7917V21.2917ZM2.4165 21.2917L8.45817 21.2917L8.45817 19.7917L2.4165 19.7917L2.4165 21.2917Z" fill="white"/>
<path d="M16.9168 14.5C16.9168 13.8622 16.2769 13.4321 14.997 12.5719C13.6996 11.6999 13.0509 11.264 12.5672 11.5841C12.0835 11.9042 12.0835 12.7695 12.0835 14.5C12.0835 16.2305 12.0835 17.0958 12.5672 17.4159C13.0509 17.736 13.6996 17.3001 14.997 16.4281C16.2769 15.5679 16.9168 15.1378 16.9168 14.5Z" stroke="#C684D8" stroke-width="1.5" stroke-linecap="round"/>
<path d="M2.4165 14.5C2.4165 8.80387 2.4165 5.9558 4.18607 4.18623C5.95563 2.41667 8.8037 2.41667 14.4998 2.41667C20.196 2.41667 23.044 2.41667 24.8136 4.18623C25.8002 5.17281 26.2367 6.49463 26.4299 8.45834M26.5832 14.5C26.5832 20.1961 26.5832 23.0442 24.8136 24.8138C23.044 26.5833 20.196 26.5833 14.4998 26.5833C8.8037 26.5833 5.95563 26.5833 4.18607 24.8138C3.19949 23.8272 2.76296 22.5054 2.5698 20.5417" stroke="white" stroke-width="1.5" stroke-linecap="round"/>
</svg>
